<svg xmlns="http://www.w3.org/2000/svg" width="96" height="96" viewBox="0 0 96 96" fill="none" role="img" aria-label="Aktaşlar Mühendislik logosu">
  <defs>
    <linearGradient id="g" x1="10" y1="10" x2="86" y2="86" gradientUnits="userSpaceOnUse">
      <stop stop-color="#B07749"/>
      <stop offset="1" stop-color="#2AA889"/>
    </linearGradient>
    <linearGradient id="glow" x1="48" y1="0" x2="48" y2="96" gradientUnits="userSpaceOnUse">
      <stop stop-color="#F1C37D" stop-opacity="0.55"/>
      <stop offset="1" stop-color="#F1C37D" stop-opacity="0"/>
    </linearGradient>
  </defs>

  <!-- Shield -->
  <path d="M48 8c12.7 8.2 25.2 9.4 36 10.3v33.7c0 19.9-14.2 32.6-36 36C26.2 84.6 12 71.9 12 52V18.3C22.8 17.4 35.3 16.2 48 8Z" fill="url(#g)" opacity="0.95"/>
  <path d="M48 8c12.7 8.2 25.2 9.4 36 10.3v33.7c0 19.9-14.2 32.6-36 36C26.2 84.6 12 71.9 12 52V18.3C22.8 17.4 35.3 16.2 48 8Z" fill="url(#glow)"/>

  <!-- Inner plate -->
  <path d="M48 17c9.9 6.2 19.7 7.2 28.4 7.9V52c0 15.3-11 25.1-28.4 27.7C30.6 77.1 19.6 67.3 19.6 52V24.9C28.3 24.2 38.1 23.2 48 17Z" fill="white" opacity="0.92"/>

  <!-- Stylized A (beam + column) -->
  <path d="M31 61.5 47.8 30.5c.2-.4.7-.4.9 0L65 61.5" stroke="#0E1216" stroke-opacity="0.86" stroke-width="4.2" stroke-linecap="round" stroke-linejoin="round"/>
  <path d="M38.5 51.5h19" stroke="#0E1216" stroke-opacity="0.76" stroke-width="4.0" stroke-linecap="round"/>

  <!-- structural lines -->
  <path d="M26.5 40.5h6.5M63 40.5h6.5" stroke="#2AA889" stroke-opacity="0.55" stroke-width="2.2" stroke-linecap="round"/>
  <path d="M28 69.5h40" stroke="#B07749" stroke-opacity="0.35" stroke-width="2.2" stroke-linecap="round"/>
</svg>

